<?xml version="1.0" encoding="UTF-8" standalone="no"?>
<!-- Created with Inkscape (http://www.inkscape.org/) -->

<svg
   xmlns:dc="http://purl.org/dc/elements/1.1/"
   xmlns:cc="http://creativecommons.org/ns#"
   xmlns:rdf="http://www.w3.org/1999/02/22-rdf-syntax-ns#"
   xmlns:svg="http://www.w3.org/2000/svg"
   xmlns="http://www.w3.org/2000/svg"
   xmlns:sodipodi="http://sodipodi.sourceforge.net/DTD/sodipodi-0.dtd"
   xmlns:inkscape="http://www.inkscape.org/namespaces/inkscape"
   width="1189mm"
   height="841mm"
   viewBox="0 0 1189 841"
   version="1.1"
   id="svg8"
   inkscape:version="0.92.4 (5da689c313, 2019-01-14)"
   sodipodi:docname="ProgressGym.svg">
  <defs
     id="defs2" />
  <sodipodi:namedview
     id="base"
     pagecolor="#ffffff"
     bordercolor="#666666"
     borderopacity="1.0"
     inkscape:pageopacity="0.0"
     inkscape:pageshadow="2"
     inkscape:zoom="0.24918733"
     inkscape:cx="2043.169"
     inkscape:cy="1607.4186"
     inkscape:document-units="mm"
     inkscape:current-layer="layer1"
     showgrid="false"
     inkscape:window-width="1920"
     inkscape:window-height="1017"
     inkscape:window-x="-8"
     inkscape:window-y="-8"
     inkscape:window-maximized="1" />
  <metadata
     id="metadata5">
    <rdf:RDF>
      <cc:Work
         rdf:about="">
        <dc:format>image/svg+xml</dc:format>
        <dc:type
           rdf:resource="http://purl.org/dc/dcmitype/StillImage" />
        <dc:title></dc:title>
      </cc:Work>
    </rdf:RDF>
  </metadata>
  <g
     inkscape:label="Vrstva 1"
     inkscape:groupmode="layer"
     id="layer1"
     transform="translate(0,544)">
    <path
       style="fill:#6e6e6e;stroke-width:1.55179358"
       d="m 503.09491,287.23505 c -4.57721,-2.04246 -5.5231,-7.00556 -2.36631,-12.41486 10.08352,-17.27825 81.18961,-53.60743 137.16051,-70.07722 9.91539,-2.91758 20.30479,-6.48213 23.08751,-7.92111 7.6093,-3.9349 21.32138,-4.69427 30.38755,-1.68302 4.20152,1.39549 14.9474,7.11775 23.87956,12.716 71.93069,45.08307 143.98777,56.54581 213.41852,33.95083 22.81846,-7.42596 50.47131,-21.97996 76.19775,-40.10391 6.3371,-4.4643 13.1537,-7.65495 20.1735,-9.44278 27.1133,-6.90495 45.8165,-14.64119 61.5244,-25.44853 3.7733,-2.59585 16.9033,-9.67202 29.1782,-15.72457 49.3956,-24.35632 47.8858,-22.74379 47.9368,-51.199874 0.025,-10.668574 1.7826,-35.109322 3.9186,-54.312755 2.1361,-19.203475 4.2863,-45.73911511 4.7783,-58.968155 l 0.8946,-24.052862 -8.0048,-25.604577 c -10.159,-32.495241 -16.0239,-57.104847 -20.155,-84.572777 -7.3169,-48.65059 -12.8703,-69.9905 -31.4986,-121.03987 -17.3049,-47.42272 -18.6267,-52.70679 -17.4687,-69.83067 0.521,-7.69712 0.2183,-17.79726 -0.6725,-22.50102 -3.7815,-19.95581 -24.4221,-50.95998 -44.8565,-67.37862 -29.8483,-23.98255 -90.94162,-58.53259 -148.42659,-83.93937 -35.47878,-15.68059 -43.42723,-17.46439 -51.06158,-11.45924 -9.88763,7.77771 -41.98986,81.84611 -45.05438,103.95292 -0.78637,5.6725 -0.39204,7.86322 1.93388,10.73524 l 2.92182,3.60843 11.7837,-30.13275 c 6.48112,-16.57299 15.35479,-39.55984 19.71953,-51.08188 8.42106,-22.23057 11.13296,-26.74391 14.21652,-23.66023 1.38065,1.38062 -3.22931,15.09015 -19.38623,57.65264 -11.65885,30.71271 -21.19784,57.69435 -21.19784,59.95928 0,8.81619 9.47626,20.85144 16.43673,20.87526 0.93187,0.003 3.6614,-5.05702 6.06531,-11.24473 4.84108,-12.46102 9.57645,-22.4641 18.98312,-40.10018 4.19178,-7.85877 7.39879,-16.89802 9.63469,-27.15629 5.1715,-23.7269 6.09095,-26.53255 10.35537,-31.60046 4.44391,-5.28131 7.01934,-5.87742 9.98036,-2.30964 4.44023,5.35013 -10.24165,53.10137 -24.06765,78.27763 -12.64068,23.01762 -13.94662,25.68213 -16.95003,34.58182 -2.28748,6.77903 -2.29193,7.75176 -0.0492,11.17225 1.35022,2.06082 4.82993,5.14802 7.73251,6.86066 6.70566,3.95643 21.13261,8.28569 22.48673,6.74788 1.15633,-1.3131 17.31092,-44.72685 19.77955,-53.15546 0.87499,-2.98721 2.02572,-10.80195 2.55724,-17.36597 1.73659,-21.44505 9.90734,-39.27448 17.99824,-39.27448 3.34887,0 3.7824,0.6504 3.6191,5.43122 -0.10172,2.98726 -1.31683,9.27202 -2.6994,13.96624 -1.38265,4.6941 -3.22774,14.20405 -4.10031,21.13316 -2.21645,17.60353 -6.04043,30.66778 -16.07093,54.90467 -4.76839,11.52204 -8.68921,22.44804 -8.71278,24.28003 -0.0492,3.82606 8.02533,11.4744 16.88675,15.99507 6.88685,3.51335 23.57873,5.47987 30.40006,3.58138 5.2666,-1.46577 10.72761,-10.78882 12.50895,-21.35546 l 1.04652,-6.2072 -7.55358,7.28453 c -6.09098,5.87394 -8.0795,6.98589 -10.2692,5.74209 -3.46156,-1.96596 -3.416,-4.01118 0.25854,-11.61655 2.69816,-5.58447 12.40707,-42.5146 14.96974,-56.94052 1.90764,-10.73902 9.63227,-15.6463 12.57164,-7.98656 0.80786,2.10536 -3.43838,31.47997 -6.65803,46.05932 -0.72928,3.30208 -0.36703,4.26743 1.5994,4.26743 4.56182,0 6.12282,6.46535 4.21131,17.44222 -0.95475,5.48258 -1.73603,10.81373 -1.73603,11.8469 0,1.0332 4.36452,3.9432 9.69877,6.46683 11.20726,5.30195 23.93169,6.13571 33.41338,2.18958 7.3241,-3.04825 17.8041,-13.09626 24.6523,-23.63594 2.9273,-4.50533 5.9862,-7.78104 6.7979,-7.27944 7.0567,4.3613 -10.9289,27.24631 -29.9297,38.08234 -10.82783,6.17516 -10.37637,4.67701 -7.44861,24.71827 2.53639,17.36237 2.59958,57.23343 0.10934,69.05477 -2.54915,12.10107 -6.50345,19.68613 -14.99648,28.76582 l -6.89918,7.3759 5.38993,9.8614 c 2.96446,5.42384 6.34541,14.64343 7.51327,20.48801 l 2.12308,10.6264 6.69799,-8.68167 c 8.76966,-11.36713 24.82876,-26.29987 36.15956,-33.62326 17.1694,-11.09711 47.7583,-21.33177 47.7583,-15.97917 0,1.16366 -1.222,2.13982 -2.7156,2.16927 -1.4937,0.0297 -7.6468,1.99962 -13.674,4.37843 -34.6224,13.66499 -64.72028,48.10899 -79.17516,90.6082 -2.03543,5.984145 -4.49561,11.838043 -5.46711,13.008738 -2.27866,2.745594 -8.25886,2.738983 -10.54164,-0.0042 -2.79904,-3.37273 -0.8371,-15.541688 4.61518,-28.623328 8.16499,-19.59081 7.86949,-46.75613 -0.63493,-58.37848 -2.16216,-2.95484 -2.29943,-2.95747 -6.62518,-0.12334 -8.51609,5.57998 -19.57861,17.11045 -23.08243,24.05888 -8.29141,16.44301 -19.86367,59.636914 -25.04177,93.469669 -4.11562,26.890596 -0.83935,48.98419 10.65123,71.82711 7.03672,13.988792 12.87536,21.909272 27.07399,36.727663 7.08846,7.397858 12.88824,14.12073 12.88824,14.939987 0,2.695116 -4.44984,5.247318 -7.47516,4.286968 -3.03906,-0.965181 -16.70701,-14.766854 -26.98248,-27.247161 l -5.74952,-6.983059 -0.0665,7.294614 c -0.21318,22.313857 -9.9893,42.293911 -31.0644,63.489119 -12.8965,12.96996 -16.7574,15.84105 -29.55104,21.97509 -19.78357,9.48529 -30.97671,11.98774 -53.61018,11.98524 -27.60326,-0.003 -50.18743,-6.04479 -81.56212,-21.81963 -6.59309,-3.31505 -12.40096,-6.69609 -12.90617,-7.51361 -1.92904,-3.12127 1.80924,-2.82506 10.77653,0.85401 17.01102,6.97903 43.25447,14.18473 58.72479,16.12408 26.72742,3.35069 47.98489,-0.004 70.84404,-11.20056 18.56575,-9.08868 37.10097,-27.596104 46.34244,-46.272932 5.64809,-11.414679 6.65383,-15.003731 7.47139,-26.661559 2.50757,-35.7556157 -13.07172,-61.722692 -46.94164,-78.240672 -13.20128,-6.438102 -40.07157,-14.586007 -48.10225,-14.586007 -4.45429,0 -6.43013,-2.776491 -2.93127,-4.119133 3.83157,-1.470298 30.90339,2.19873 43.38531,5.879965 13.48435,3.976811 32.45006,13.676898 40.92541,20.931502 l 6.40428,5.481779 v -4.551817 c 0,-3.791133 -0.83121,-4.790221 -4.97399,-5.978292 -3.54925,-1.017863 -7.5053,-4.72351 -13.80985,-12.935498 -11.5317,-15.020387 -23.74758,-25.000496 -40.96013,-33.46394 -26.59493,-13.076463 -50.81313,-14.618642 -79.61179,-5.069056 -27.41491,9.090538 -57.6832,30.996377 -83.37674,60.341439 -11.10359,12.68171 -15.75708,16.9332462 -18.53387,16.9332462 -5.43567,0 -6.4392,-5.1024532 -2.21297,-11.2515052 1.90608,-2.773312 9.70144,-11.47571 17.32308,-19.338846 7.62168,-7.863008 13.57777,-15.136134 13.23565,-16.162474 -1.45076,-4.352322 -48.87984,-29.285006 -55.70837,-29.285006 -0.80044,0 -0.96586,3.780283 -0.38272,8.743636 1.48658,12.648906 -1.74167,10.360282 -6.89842,-4.89037 -6.69557,-19.80175 -14.71451,-32.51249 -30.4251,-48.22651 -14.89349,-14.89663 -23.71621,-20.75329 -62.2159,-41.29966 -11.09536,-5.92133 -20.83669,-11.41315 -21.64756,-12.20397 -6.42352,-6.26543 21.03467,-2.29625 40.39903,5.83983 29.2825,12.3031 59.57588,41.97985 72.06089,70.59398 3.7668,8.632977 4.05742,8.886086 13.93365,12.138493 15.08528,4.967761 34.0484,14.245334 48.88616,23.916982 l 13.22637,8.621405 12.20787,-9.051547 c 16.78067,-12.442162 29.76478,-19.4348 46.90074,-25.258776 18.87717,-6.415727 44.70451,-7.939847 62.34508,-3.679327 27.54643,6.653194 55.48426,25.170408 70.18953,46.521712 3.25037,4.719398 6.74161,8.580717 7.75841,8.580717 1.12026,0 2.23861,-3.729848 2.83811,-9.465329 2.39717,-22.93506 16.90638,-77.39336 25.91037,-97.2513 6.55326,-14.45293 10.72965,-19.31406 26.85,-31.25174 24.03781,-17.80103 28.50151,-23.86697 32.07713,-43.59141 2.41293,-13.31033 2.31541,-53.57644 -0.1725,-71.1534 l -1.97884,-13.9815 -7.35637,-1.01172 c -4.04598,-0.55652 -11.49093,-2.96721 -16.54443,-5.35708 l -9.18823,-4.34542 -4.08247,5.11657 c -5.5562,6.96335 -12.63856,8.98204 -28.78824,8.20537 -11.16131,-0.5369 -14.79461,-1.40706 -21.79429,-5.22065 -9.44006,-5.14344 -21.85998,-16.47213 -21.85998,-19.93937 0,-2.35355 -1.57773,-3.06041 -10.8626,-4.86706 -12.8523,-2.50083 -27.52303,-12.4194 -31.08334,-21.01491 -1.19062,-2.87436 -3.67069,-5.01477 -7.1353,-6.15817 -11.90462,-3.92892 -20.64839,-16.15268 -20.7154,-28.95967 -0.0254,-4.86138 -1.02294,-7.51352 -3.91353,-10.40402 -9.64745,-9.64749 -1.21278,-40.5778 26.49406,-97.15493 14.26628,-29.1317 16.11963,-31.00918 30.61006,-31.00918 9.29199,0 13.4521,1.03188 28.61019,7.09643 55.37364,22.15442 128.65877,60.84618 160.05107,84.50098 14.506,10.93059 27.8943,25.0867 38.0697,40.25272 14.3074,21.32486 18.2296,34.96484 17.695,61.53646 -0.345,17.14948 -0.03,19.40585 4.4851,32.39933 2.6707,7.68136 10.102,29.05517 16.5137,47.49719 14.311,41.16289 19.6449,62.6655 25.8108,104.05361 5.1367,34.48032 11.9375,64.399832 21.1065,92.856638 5.5358,17.180761 5.7471,18.655255 5.6726,39.570864 -0.049,15.0597611 -1.5771,33.151326 -4.9658,58.968198 -2.6887,20.483603 -5.3836,47.722245 -5.9888,60.529916 -1.5758,33.350654 -1.1373,32.801124 -43.1347,54.063424 -12.908,6.5349 -28.969,15.48087 -35.6914,19.87981 -17.2791,11.30707 -34.171,18.96296 -55.4688,25.13981 -10.1298,2.9378 -20.6043,6.98154 -23.277,8.98573 -13.4307,10.07259 -35.56248,24.01857 -48.144,30.33737 -79.22827,39.79087 -168.77766,33.57604 -249.89337,-17.34275 -17.34143,-10.88587 -29.312,-16.37922 -35.43062,-16.25932 -1.91125,0.0441 -6.26815,1.14183 -9.68216,2.45409 -3.41389,1.31221 -17.72919,5.7537 -31.81178,9.87008 -14.08254,4.11625 -30.40272,9.29728 -36.26726,11.51339 -22.46135,8.4876 -72.41504,41.59235 -83.07976,55.0578 -5.30674,6.70011 -8.66442,8.17266 -13.60688,5.96727 z M 856.4036,232.67949 c -13.66016,-3.0321 -24.11139,-6.77856 -48.29471,-17.31223 -21.57758,-9.39845 -23.70808,-10.00071 -43.45028,-12.28039 -27.8042,-3.21053 -35.01116,-4.55216 -64.9862,-12.09806 -24.75693,-6.23229 -26.42655,-6.44497 -50.43321,-6.42657 -18.86705,0.0212 -27.3335,0.68503 -35.25978,2.79204 -11.50182,3.05745 -13.62181,2.60192 -13.62181,-2.92712 0,-3.13755 1.24343,-4.09692 7.85505,-6.06047 24.03883,-7.13869 59.32209,-6.26819 92.22743,2.27553 26.5609,6.89647 38.21427,9.12932 60.60022,11.61129 11.14424,1.23554 22.37222,2.66842 24.95112,3.18421 4.333,0.86656 3.79466,0.003 -7.09439,-11.37933 -12.35952,-12.91977 -28.01539,-34.19453 -28.01539,-38.07022 0,-3.07012 3.76358,-6.00037 6.40479,-4.98692 1.17866,0.45206 4.17707,4.4796 6.66315,8.9497 5.96515,10.72499 15.66109,25.13422 22.52221,33.47035 18.47848,22.45049 53.54236,38.64772 87.05814,40.21491 14.50366,0.67842 17.26069,0.37339 24.40989,-2.70258 9.11762,-3.92231 12.7764,-3.33946 12.7764,2.03552 0,9.20247 -31.34968,14.80737 -54.31263,9.71034 z m 126.20776,-44.32506 c -23.0912,-6.05284 -54.29601,-20.94693 -83.60192,-39.90348 -14.17421,-9.16857 -16.248,-11.05108 -15.87664,-14.41228 0.23522,-2.12634 1.56752,-4.08218 2.96149,-4.34622 1.39376,-0.26362 8.72596,3.96744 16.29365,9.40319 31.19121,22.4043 63.85412,39.64576 85.95661,45.37302 6.25463,1.62071 14.18605,2.3577 21.95065,2.03975 8.3186,-0.34118 12.1563,0.0615 12.1539,1.26084 0,4.52923 -23.47603,4.8741 -39.83774,0.58535 z M 624.50893,139.97542 c -11.85635,-7.85326 -33.44203,-27.73795 -41.42506,-38.16045 -8.15363,-10.645348 -11.62363,-19.597846 -10.04076,-25.904731 1.27741,-5.089442 4.03754,-3.695814 4.03754,2.038396 0,12.118994 19.82693,30.978875 56.25249,53.508835 5.03909,3.11683 5.76481,9.41647 1.35663,11.77557 -2.28426,1.22245 -4.47575,0.52161 -10.18084,-3.25762 z m 421.21337,-7.33208 c -2.3233,-0.64222 -4.072,-2.39843 -4.3591,-4.37766 -0.4713,-3.24588 -0.1662,-3.29013 17.0696,-2.48333 21.1945,0.99234 33.7659,-1.51497 49.7739,-9.92701 14.1934,-7.45834 25.6517,-18.11072 35.2683,-32.787765 4.2847,-6.539312 8.4891,-12.738757 9.3432,-13.77637 1.9898,-2.417509 6.1851,-0.850451 6.1851,2.310366 0,5.103937 -14.4937,25.366937 -25.4898,35.636139 -19.2304,17.95903 -42.7431,26.92984 -69.8059,26.63308 -7.7582,-0.0848 -15.8516,-0.6371 -17.9853,-1.22745 z M 742.1008,88.308027 c -35.71641,-6.573176 -62.75709,-24.187851 -74.44975,-48.49806 -4.86219,-10.108953 -5.40893,-12.412368 -4.4582,-18.785116 1.67094,-11.1997136 4.60688,-16.7272656 13.5623,-25.5347302 10.46221,-10.2893338 22.41396,-17.3223188 39.36798,-23.1661308 16.60414,-5.72319 20.40951,-3.938667 7.31779,3.431473 -30.78938,17.3334658 -45.49363,32.5123644 -45.49363,46.962238 0,12.991019 15.06743,31.210961 35.05367,42.387958 13.0326,7.288214 35.24902,15.169023 52.31941,18.559131 8.26679,1.641821 13.38056,3.374977 13.03552,4.418057 -0.82803,2.503123 -23.12468,2.64163 -36.25509,0.224629 z m 295.6277,-15.329442 c -7.9431,-2.221956 -15.2831,-6.457853 -15.2831,-8.819586 0,-0.833795 2.9678,-1.520013 6.5952,-1.525015 17.5499,-0.02543 37.297,-6.173337 47.2892,-14.726463 8.3521,-7.148987 16.7003,-19.969712 22.5466,-34.625862 5.5133,-13.82099948 6.8704,-15.8072648 8.2838,-12.1241656 1.5488,4.0362319 -3.6578,23.6549726 -9.591,36.1395606 -12.9609,27.271828 -37.5311,41.922426 -59.8407,35.681531 z M 585.0806,68.5949 c -15.35424,-1.953546 -27.47514,-6.73707 -35.0683,-13.839606 -10.04703,-9.397771 -6.26755,-9.864997 19.30939,-2.386993 12.37554,3.618338 29.48404,7.790873 38.01894,9.272487 26.02345,4.51736 27.3463,4.829721 27.25488,6.43344 -0.11656,2.047678 -34.65918,2.41094 -49.51491,0.520926 z M 285.31991,33.546863 c -0.0127,-0.640064 3.21613,-9.674911 7.17578,-20.077152 l 7.1994,-18.9131963 -15.93585,-42.3826177 c -8.76473,-23.310486 -17.23025,-45.723179 -18.8123,-49.806117 l -2.87645,-7.42346 16.55327,0.43972 16.55323,0.43972 10.21323,30.539962 c 5.61732,16.79707 10.61685,30.93399 11.1102,31.415584 0.49334,0.481044 5.36206,-13.436079 10.81947,-30.928014 l 9.92256,-31.803382 h 15.93559 15.9356 l -3.62964,9.698684 c -1.99634,5.334202 -13.6178,36.758051 -25.82551,69.830672 l -22.1958,60.131943 h -16.05961 c -8.83278,0 -16.0702,-0.523469 -16.08317,-1.163787 z M 184.47692,-1.2014854 c -10.58387,-1.7484984 -25.48927,-8.5915671 -32.91486,-15.1113406 -26.86679,-23.589322 -28.16327,-77.979044 -2.47723,-103.924204 14.08708,-14.22915 28.71383,-19.47108 54.01361,-19.35724 17.22523,0.0771 24.76891,1.56146 38.2516,7.52411 l 8.3022,3.67162 v 15.60336 c 0,8.58182 -0.33495,15.603316 -0.74441,15.603316 -0.40946,0 -4.4247,-2.798742 -8.92281,-6.219496 -11.22157,-8.53371 -22.19231,-12.40991 -35.00504,-12.3679 -24.98061,0.0818 -39.80084,16.799694 -39.86346,44.967916 -0.0331,14.925238 2.84005,24.650712 9.62397,32.576192 8.01158,9.359796 15.90764,12.831915 31.07358,13.664184 l 12.8023,0.702747 V -38.02896 -52.189614 h -13.19024 -13.19025 v -12.41436 -12.414317 h 29.48407 29.48409 v 33.296063 33.295978 l -12.09039,3.8194019 c -12.40693,3.9193404 -32.41163,7.3191112 -41.17083,6.99683313 -2.71206,-0.0991755 -8.77173,-0.81582464 -13.4659,-1.59138573 z m 957.27978,-1.3309864 c -0.1361,-1.2802119 -0.082,-9.6857612 0.1195,-18.6789042 0.7805,-34.685199 -10.9342,-70.989331 -39.5746,-122.642864 -5.5147,-9.94553 -10.0265,-18.5287 -10.0265,-19.07383 0,-3.29254 5.4876,0.21234 12.4179,7.93188 22.7227,25.31006 40.8761,60.923481 46.6723,91.562191 2.5169,13.304354 1.2093,39.709879 -2.3628,47.71131 -6.3243,14.1667994 -7.0103,15.41526666 -7.2468,13.1902172 z M 381.55471,-53.741668 v -51.209112 h 15.51792 15.51796 v 5.431343 c 0,5.269865 1.88518,7.106138 3.91828,3.81652 2.01737,-3.264231 13.39709,-9.359033 20.54205,-11.002253 5.40506,-1.243 9.10291,-1.21727 13.96688,0.0975 7.10376,1.91968 16.70951,9.333773 18.20735,14.053087 0.81307,2.56178 2.04103,2.044499 10.69524,-4.505874 20.67869,-15.651593 40.82759,-13.556493 50.51441,5.252785 3.91879,7.609178 3.97821,8.253014 4.47371,48.493567 l 0.50253,40.7820346 h -15.63222 -15.63214 l -0.004,-32.1997496 c -0.004,-33.59414 -1.25207,-42.742658 -6.16435,-45.3717 -4.73775,-2.53563 -14.38423,-1.79745 -19.81947,1.516496 l -5.04337,3.074992 v 36.489938 36.4900236 H 457.59458 442.07662 V -38.014083 c 0,-33.546503 -0.17547,-35.705054 -3.21622,-39.570737 -4.04805,-5.14632 -13.68164,-5.601171 -21.22449,-1.002182 l -5.04337,3.07495 v 36.489981 36.4899806 h -15.518 -15.51799 V -53.741117 Z M 353.62242,-195.93483 c -2.98725,-0.36958 -9.09743,-1.39757 -13.57821,-2.28392 l -8.14688,-1.61139 v -12.30438 c 0,-6.76745 0.52341,-12.29539 1.16384,-12.28428 0.64012,0.008 5.59044,1.40761 11.00079,3.10356 5.50663,1.72607 14.19318,3.08351 19.73269,3.08351 17.24278,0 25.51902,-6.73076 25.51902,-20.75392 v -7.08482 l -5.5097,3.73904 c -8.34348,5.66195 -19.91016,7.77163 -30.52658,5.56765 -12.0475,-2.50105 -20.05067,-8.70863 -25.47814,-19.76183 -3.95167,-8.04775 -4.49441,-10.98712 -4.9634,-26.88139 -0.45531,-15.43879 -0.0644,-19.07646 2.90313,-26.97147 6.77797,-18.03523 20.59918,-28.00759 38.73206,-27.94605 6.92727,0.0254 12.43843,1.08127 17.54185,3.36693 6.27855,2.81188 7.57745,2.97764 8.31292,1.06105 0.67961,-1.77105 4.08298,-2.27138 15.44773,-2.27138 h 14.57601 v 51.70334 c 0,60.66304 -0.50317,63.78838 -12.14316,75.40709 -5.16509,5.1556 -9.71229,7.99847 -15.78912,9.87089 -8.81862,2.71716 -29.2669,4.43115 -38.79485,3.25177 z m 31.1129,-66.56284 4.57835,-2.3675 v -24.75933 -24.75926 l -3.96363,-0.99481 c -6.56745,-1.6483 -19.0746,0.24243 -22.65172,3.42504 -5.32402,4.73622 -9.00459,14.54023 -9.04184,24.08507 -0.0492,12.64377 1.37812,17.94992 6.22486,23.13837 3.68677,3.94672 5.43164,4.6 12.28631,4.6 4.39415,0 10.04957,-1.06541 12.56767,-2.36758 z m -139.78152,29.82518 c -24.6716,-5.55036 -37.52712,-23.10502 -37.72179,-51.51037 -0.15859,-23.13642 7.1252,-38.40657 22.51105,-47.19373 22.83664,-13.0426 57.57607,-7.72188 71.05303,10.8826 7.14602,9.86479 10.00835,20.3743 9.88949,36.31113 -0.1792,24.01395 -8.19941,38.69418 -25.78527,47.19653 -11.52954,5.57425 -26.94429,7.23892 -39.94651,4.31384 z m 24.6944,-23.78374 c 6.30452,-4.41589 9.41996,-13.84248 9.41996,-28.50258 0,-21.79106 -6.12727,-31.03583 -20.56981,-31.03583 -13.61983,0 -19.71506,10.10014 -19.66593,32.58764 0.0442,19.87282 6.60561,29.48407 20.13058,29.48407 4.02647,0 8.62491,-1.09016 10.6852,-2.5333 z m 294.65992,24.12869 c -19.459,-2.85121 -35.48178,-15.13588 -40.97746,-31.41741 -3.8837,-11.5061 -3.50323,-31.78321 0.80802,-43.06218 8.82781,-23.09472 32.51309,-35.40448 59.91376,-31.13866 24.29317,3.78224 36.47845,19.75009 36.47845,47.80235 v 11.39179 h -34.94488 -34.94492 l 0.99066,4.26743 c 1.85195,7.97795 6.10692,13.57014 13.07006,17.17759 6.025,3.12131 8.69922,3.52386 20.1378,3.03142 11.05697,-0.47613 14.79898,-1.37193 23.13676,-5.53904 5.47068,-2.73424 10.18423,-4.97124 10.47472,-4.97124 0.29074,0 0.52766,5.83996 0.52766,12.97776 v 12.97788 l -8.1468,2.56034 c -16.91638,5.31631 -29.73282,6.40228 -46.52409,3.94197 z m 25.8662,-69.31305 c -2.78429,-12.75478 -7.77476,-17.45769 -18.52497,-17.45769 -10.56541,0 -17.18576,5.78307 -19.98509,17.45769 l -1.02317,4.26747 h 20.23249 20.23231 z m 64.12902,69.48928 c -4.04268,-0.73445 -10.85116,-2.49796 -15.13012,-3.91909 l -7.77977,-2.58407 v -14.03071 -14.03063 l 3.49153,2.5695 c 13.9292,10.2508 35.80046,14.80771 45.93018,9.56938 3.85178,-1.99191 4.89113,-3.52688 4.89113,-7.22405 0,-5.54099 -3.44338,-7.34179 -21.72512,-11.362 -20.37934,-4.48146 -29.76719,-12.3618 -31.93316,-26.80596 -2.87007,-19.13884 10.65878,-33.48436 35.68835,-37.84313 11.19565,-1.94956 26.99897,-0.45697 38.91911,3.67509 l 6.20724,2.15181 0.45299,12.80174 c 0.24878,7.04091 -0.0992,12.52561 -0.7759,12.18816 -19.84257,-9.90318 -28.48313,-12.04275 -39.94846,-9.89182 -6.11514,1.14717 -10.82912,6.65959 -9.23887,10.80356 1.44054,3.75392 5.59163,5.56646 22.12165,9.65961 16.90887,4.18699 25.03682,8.88986 28.69766,16.60444 3.12039,6.57597 3.3379,19.5035 0.44417,26.4285 -2.9842,7.14216 -14.15552,16.18137 -23.41106,18.9429 -9.87945,2.94764 -27.3368,4.03424 -36.90211,2.29677 z m 96.2111,0 c -4.04263,-0.73445 -10.85116,-2.49796 -15.13007,-3.91909 l -7.77964,-2.58407 v -14.03071 -14.03063 l 3.4914,2.5695 c 13.92929,10.2508 35.80041,14.80771 45.93005,9.56938 3.85199,-1.99191 4.89126,-3.52688 4.89126,-7.22405 0,-5.54099 -3.44338,-7.34179 -21.72512,-11.362 -20.3793,-4.48146 -29.76702,-12.3618 -31.93303,-26.80596 -2.87008,-19.13884 10.65857,-33.48436 35.68818,-37.84313 11.19573,-1.94956 26.99897,-0.45697 38.91915,3.67509 l 6.20715,2.15181 0.45354,12.80174 c 0.24879,7.04091 -0.10087,12.52561 -0.77581,12.18816 -19.84257,-9.90318 -28.4833,-12.04275 -39.94858,-9.89182 -6.11502,1.14717 -10.82899,6.65959 -9.23875,10.80356 1.44042,3.75392 5.5915,5.56646 22.12161,9.65961 16.90883,4.18699 25.03677,8.88986 28.69766,16.60444 3.12043,6.57597 3.33789,19.5035 0.44413,26.4285 -2.98408,7.14216 -14.15557,16.18137 -23.41093,18.9429 -9.87945,2.94764 -27.33676,4.03424 -36.9022,2.29677 z M 12.227847,-301.42105 v -67.6714 l 34.527399,0.75013 c 19.441526,0.42255 37.020684,1.5312 40.233831,2.53787 22.930563,7.18392 33.661213,28.83139 26.827323,54.12009 -2.41737,8.9455 -4.05135,11.64761 -11.46919,18.96664 -11.016173,10.8693 -19.221405,13.96027 -40.074034,15.09676 l -15.905884,0.86677 v 21.50223 21.50235 H 29.297578 12.227847 Z m 60.056658,-3.6483 c 9.257806,-5.64479 12.418911,-18.07296 7.326452,-28.80448 -3.300396,-6.95504 -10.389429,-10.05313 -23.003572,-10.05313 H 46.367292 v 20.94918 20.94917 l 10.474609,-0.004 c 7.649895,-0.004 11.814339,-0.82269 15.442604,-3.03494 z m 60.983235,20.11054 v -51.20911 h 15.51793 15.51793 v 7.88929 7.88928 l 5.81923,-4.57309 c 8.83988,-6.94703 15.02719,-9.62532 23.20933,-10.04665 l 7.43859,-0.38271 0.44272,13.19025 0.44273,13.19026 h -13.63294 c -8.06327,0 -15.69337,0.86936 -18.67629,2.128 l -5.04332,2.12795 v 35.50297 35.50297 h -15.51796 -15.51793 z m 313.46224,0 v -51.20911 h 15.51801 15.51787 v 7.88929 7.88928 l 5.81923,-4.57309 c 8.83989,-6.94703 15.02721,-9.62532 23.20928,-10.04665 l 7.43867,-0.38271 0.44218,13.19025 0.44269,13.19026 H 501.485 c -8.06327,0 -15.69338,0.86936 -18.67632,2.128 l -5.04333,2.12795 v 35.50297 35.50297 h -15.51796 -15.51787 z"
       id="path3724"
       inkscape:connector-curvature="0" />
  </g>
</svg>
